<svg xmlns="http://www.w3.org/2000/svg" width="1024" height="1024" viewBox="0 0 1024 1024">
  <style>
    path { fill: #0F0F0F; }
    @media (prefers-color-scheme: dark) {
      path { fill: #FEFEFE; }
    }
  </style>
  <path d="M647.468 459.25C724.294 452.875 736.076 511.262 684.726 557.932C640.447 598.175 581.075 614.478 522.826 620.867C495.046 623.915 463.269 621.104 437.089 629.795C437.888 627.912 438.898 626.014 439.923 624.29C450.799 605.997 467.553 585.769 491.115 587.063C502.851 587.707 513.33 590.14 525.698 590.583C549.729 591.511 573.76 588.735 596.948 582.354C588.988 561.641 580.74 541.04 572.207 520.556C590.681 513.742 605.455 508.317 625.349 507.909C632.714 525.281 639.39 542.293 647.247 559.601C657.934 551.956 665.529 545.055 672.01 533.506C679.882 519.478 676.957 499.413 660.8 492.823C635.475 482.495 600.818 491.633 575.897 500.162C563.145 504.168 547.279 511.725 535.57 517.969C484.307 544.904 441.12 584.977 410.432 634.085C398.301 653.587 389.744 673.393 378.524 695.574C363.47 725.708 330.789 753.703 295.185 743.132C290.792 741.828 303.078 720.006 304.307 717.396C324.672 674.122 348.529 628.152 380.633 592.538C444.079 522.155 552.848 465.12 647.468 459.25Z"/>
  <path d="M516.798 278.682C526.44 277.595 537.419 278.355 546.244 282.681C538.174 289.649 531.613 293.342 525.061 302.822C509.685 325.068 505.236 350.123 498.664 375.535C491.732 402.334 483.722 428.843 474.651 454.996C469.291 470.474 464.018 487.501 454.801 501.054C444.305 516.488 428.462 525.176 414.136 536.588C402.985 545.471 394.049 553.604 383.818 563.441C378.404 568.622 373.168 574.474 368.07 580.006C386.504 538.224 403.695 495.905 419.621 453.104C426.452 434.471 432.826 415.673 438.738 396.728C442.389 384.752 445.96 372.752 449.45 360.729C455.138 340.881 459.043 320.771 472.031 303.96C483.894 288.606 497.837 281.163 516.798 278.682Z"/>
  <path d="M662.338 596.407C663.922 598.004 675.738 625.466 677.825 630.013C690.497 657.168 703.368 684.229 716.438 711.194C718.933 716.243 730.688 737.888 729.621 742.237C722.112 749.717 696.707 743.181 687.863 739.326C656.271 724.999 640.648 687.621 628.026 657.583L612.209 620.004C627.949 614.344 648.291 605.496 662.338 596.407Z"/>
  <path d="M555.266 298.422C556.309 298.492 557.704 298.493 558.588 299.105C563.04 302.19 564.938 328.443 566.223 335.242C570.824 359.595 578.553 383.747 586.801 407.103C589.947 416.01 593.533 424.777 596.554 433.723C597.85 437.559 599.524 441.911 597.407 445.769C596.552 447.327 595.189 448.145 593.611 448.856C589.401 450.752 584.501 451.611 580.034 452.78C574.307 454.241 568.625 455.875 562.996 457.678C559.123 458.702 553.818 460.627 549.899 461.913C540.787 438.001 525.117 391.625 523.706 367.348C523.238 358.601 524.114 349.834 526.302 341.352C530.587 324.841 540.193 307.356 555.266 298.422Z"/>
</svg>
